<svg width="18" height="21" viewBox="0 0 18 21" fill="none" xmlns="http://www.w3.org/2000/svg">
<path fill-rule="evenodd" clip-rule="evenodd" d="M7 19C6.44772 19 6 19.4477 6 20C6 20.5523 6.44772 21 7 21H11C11.5523 21 12 20.5523 12 20C12 19.4477 11.5523 19 11 19H7Z" fill="white"/>
<path fill-rule="evenodd" clip-rule="evenodd" d="M2.99999 7C2.99999 3.68629 5.68628 1 8.99999 1V1C12.3137 1 15 3.68582 15 6.99953C15 7.65364 15 8.32682 15 9C15 11.4945 15.7778 13.989 16.3633 15.5133C16.6298 16.2073 16.1253 17 15.382 17H2.61802C1.87464 17 1.37014 16.2073 1.63668 15.5133C2.22218 13.989 2.99999 11.4945 2.99999 9V7Z" stroke="white" stroke-width="2"/>
</svg>
