<svg width="20" height="20" viewBox="0 0 20 20" fill="none" xmlns="http://www.w3.org/2000/svg">
<rect opacity="0.01" x="20" width="20" height="20" transform="rotate(90 20 0)" fill="white"/>
<path d="M11.206 15.1385L15.7326 5.72559C15.9233 5.32904 15.8394 4.88103 15.5138 4.55644C15.188 4.23184 14.6862 4.09608 14.204 4.20218L10.3962 5.04001V9.14217C10.3962 9.33093 10.2188 9.48399 10 9.48399C9.78126 9.48399 9.60387 9.33096 9.60387 9.14217V5.04001L5.79603 4.20218C5.31387 4.09608 4.81201 4.23182 4.48631 4.55644C4.15998 4.88169 4.07711 5.32974 4.26746 5.72561L8.79409 15.1386C9.00018 15.5671 9.46227 15.8334 10 15.8334C10.5378 15.8334 10.9999 15.5671 11.206 15.1385Z" fill="white"/>
</svg>
