<svg width="20" height="20" viewBox="0 0 20 20" fill="none" xmlns="http://www.w3.org/2000/svg">
<rect opacity="0.01" y="20" width="20" height="20" transform="rotate(-90 0 20)" fill="white"/>
<path d="M8.79404 4.86145L4.26739 14.2744C4.07667 14.671 4.16056 15.119 4.48623 15.4436C4.81195 15.7682 5.31382 15.9039 5.79595 15.7978L9.60382 14.96V10.8578C9.60382 10.6691 9.78118 10.516 9.99997 10.516C10.2187 10.516 10.3961 10.669 10.3961 10.8578V14.96L14.204 15.7978C14.6861 15.9039 15.188 15.7682 15.5137 15.4436C15.84 15.1183 15.9229 14.6703 15.7325 14.2744L11.2059 4.86143C10.9998 4.43286 10.5377 4.16665 9.99997 4.16665C9.46222 4.16665 9.0001 4.43286 8.79404 4.86145Z" fill="#1A1A1A"/>
</svg>
